<?xml version="1.0" standalone="no"?>
<!DOCTYPE svg PUBLIC "-//W3C//DTD SVG 20010904//EN"
 "http://www.w3.org/TR/2001/REC-SVG-20010904/DTD/svg10.dtd">
<svg version="1.0" xmlns="http://www.w3.org/2000/svg"
 width="260.000000pt" height="260.000000pt" viewBox="0 0 260.000000 260.000000"
 preserveAspectRatio="xMidYMid meet">
<metadata>
Created by potrace 1.11, written by Peter Selinger 2001-2013
</metadata>
<g transform="translate(0.000000,260.000000) scale(0.100000,-0.100000)"
fill="#000000" stroke="none">
<path d="M527 1748 c-28 -45 -330 -897 -324 -912 6 -16 68 -22 100 -10 8 3 34
59 57 125 l42 119 198 0 198 0 42 -119 c23 -66 49 -122 57 -125 31 -12 104 -6
109 9 8 19 -314 906 -334 923 -9 6 -42 12 -74 12 -49 0 -60 -3 -71 -22z m157
-350 c42 -119 76 -219 76 -222 0 -3 -74 -6 -164 -6 l-165 0 13 33 c7 17 43
121 81 230 37 109 71 195 75 190 5 -4 42 -106 84 -225z"/>
<path d="M1093 1753 c-9 -23 245 -905 265 -920 22 -18 127 -17 144 1 7 7 53
171 103 365 49 193 92 351 95 351 3 0 49 -159 103 -353 63 -226 104 -356 114
-364 22 -17 114 -17 137 0 19 14 280 902 271 924 -6 17 -99 17 -112 1 -6 -7
-57 -190 -114 -406 -70 -266 -106 -387 -111 -375 -5 10 -55 189 -113 397 -57
209 -110 383 -117 388 -17 10 -89 10 -107 -1 -7 -5 -58 -181 -116 -407 -57
-220 -105 -392 -108 -384 -3 8 -52 186 -108 395 -56 209 -106 386 -112 393
-15 19 -106 16 -114 -5z"/>
</g>
</svg>
