<?xml version="1.0"?><svg fill="#000000" xmlns="http://www.w3.org/2000/svg"  viewBox="0 0 30 30" width="100px" height="100px">    <path d="M 15 2 C 15 2 9 6 9 15 C 9 15.158852 9.0136525 15.317961 9.0234375 15.476562 C 7.9893702 16.312624 6 18.103518 6 19.544922 C 6 21.363922 7.8183594 25 7.8183594 25 L 11.119141 20.873047 L 12 23 L 18 23 L 18.880859 20.873047 L 22.181641 25 C 22.181641 25 24 21.363922 24 19.544922 C 24 18.103518 22.01063 16.312624 20.976562 15.476562 C 20.986348 15.317961 21 15.158852 21 15 C 21 6 15 2 15 2 z M 15 9 C 16.105 9 17 9.895 17 11 C 17 12.105 16.105 13 15 13 C 13.895 13 13 12.105 13 11 C 13 9.895 13.895 9 15 9 z M 12.417969 24 C 12.158969 24.334 12 24.717812 12 25.132812 C 12 27.035813 15 29 15 29 C 15 29 18 27.061812 18 25.132812 C 18 24.717813 17.841984 24.335 17.583984 24 L 16.738281 24 C 16.756281 24.077 16.800781 24.145562 16.800781 24.226562 C 16.800781 25.585562 15 26.265625 15 26.265625 C 15 26.265625 13.199219 25.585562 13.199219 24.226562 C 13.199219 24.146563 13.243719 24.077 13.261719 24 L 12.417969 24 z"/></svg>