<svg width="400" height="400" xmlns="http://www.w3.org/2000/svg">

 <g>
  <title>background</title>
  <rect fill="none" id="canvas_background" height="602" width="802" y="-1" x="-1"/>
 </g>
 <g>
  <title>Layer 1</title>
  <g id="surface9407167">
   <path id="svg_1" fill-rule="nonzero" fill="rgb(90.588235%,29.803922%,23.529412%)" d="m81,152c-17.625,0 -32,14.375 -32,32l0,172l-12,0c-2.21094,0 -4,1.78906 -4,4l0,12c0,15.41797 12.58203,28 28,28l280,0c15.41797,0 28,-12.58203 28,-28l0,-12c0,-2.21094 -1.78906,-4 -4,-4l-12,0l0,-172c0,-17.625 -14.375,-32 -32,-32l-240,0zm0,8l240,0c13.30078,0 24,10.69922 24,24l0,172l-288,0l0,-172c0,-13.30078 10.69922,-24 24,-24zm114,12c-0.72266,-0.01172 -1.39062,0.36719 -1.75391,0.99219c-0.36718,0.62109 -0.36718,1.39453 0,2.01562c0.36329,0.625 1.03125,1.00391 1.75391,0.99219l12,0c0.72266,0.01172 1.39063,-0.36719 1.75391,-0.99219c0.36718,-0.62109 0.36718,-1.39453 0,-2.01562c-0.36328,-0.625 -1.03125,-1.00391 -1.75391,-0.99219l-12,0zm-124,16c-1.10547,0 -2,0.89453 -2,2l0,104c-0.01172,0.72266 0.36719,1.39063 0.99219,1.75391c0.62109,0.36718 1.39453,0.36718 2.01562,0c0.625,-0.36328 1.00391,-1.03125 0.99219,-1.75391l0,-102l258,0c0.72266,0.01172 1.39063,-0.36719 1.75391,-0.99219c0.36718,-0.62109 0.36718,-1.39453 0,-2.01562c-0.36328,-0.625 -1.03125,-1.00391 -1.75391,-0.99219l-260,0zm259.96875,15.96875c-0.53125,0.00781 -1.03516,0.22656 -1.40625,0.60938c-0.36719,0.3789 -0.57031,0.89062 -0.5625,1.42187l0,138l-256,0l0,-18c0.01172,-0.72266 -0.36719,-1.39062 -0.99219,-1.75391c-0.62109,-0.36718 -1.39453,-0.36718 -2.01562,0c-0.625,0.36329 -1.00391,1.03125 -0.99219,1.75391l0,20c0,1.10547 0.89453,2 2,2l260,0c1.10547,0 2,-0.89453 2,-2l0,-140c0.00781,-0.54297 -0.20312,-1.0625 -0.58594,-1.44531c-0.38281,-0.38281 -0.90234,-0.59375 -1.44531,-0.58594zm-260,96c-0.53125,0.00781 -1.03516,0.22656 -1.40625,0.60938c-0.36719,0.3789 -0.57031,0.89062 -0.5625,1.42187l0,16c-0.01172,0.72266 0.36719,1.39063 0.99219,1.75391c0.62109,0.36718 1.39453,0.36718 2.01562,0c0.625,-0.36328 1.00391,-1.03125 0.99219,-1.75391l0,-16c0.00781,-0.54297 -0.20312,-1.0625 -0.58594,-1.44531c-0.38281,-0.38281 -0.90234,-0.59375 -1.44531,-0.58594zm-29.96875,64.03125l320,0l0,8c0,11.09375 -8.90625,20 -20,20l-280,0c-11.09375,0 -20,-8.90625 -20,-20l0,-8zm146,8c-0.72266,-0.01172 -1.39062,0.36719 -1.75391,0.99219c-0.36718,0.62109 -0.36718,1.39453 0,2.01562c0.36329,0.625 1.03125,1.00391 1.75391,0.99219l28,0c0.72266,0.01172 1.39063,-0.36719 1.75391,-0.99219c0.36718,-0.62109 0.36718,-1.39453 0,-2.01562c-0.36328,-0.625 -1.03125,-1.00391 -1.75391,-0.99219l-28,0zm0,0"/>
  </g>
 </g>
</svg>