<svg width="400" height="400" xmlns="http://www.w3.org/2000/svg">

 <g>
  <title>background</title>
  <rect fill="none" id="canvas_background" height="602" width="802" y="-1" x="-1"/>
 </g>
 <g>
  <title>Layer 1</title>
  <g id="surface9406067">
   <path id="svg_1" fill-rule="nonzero" fill="rgb(90.588235%,29.803922%,23.529412%)" d="m69.45313,121.07031c-13.23438,0 -24,10.76563 -24,24l0,172c0,13.23438 10.76562,24 24,24l88,0l0,20.49219c0,6.23828 -7.19532,11.50781 -15.71094,11.50781l-0.83594,0c-7.43359,0 -13.47656,6.28125 -13.47656,14c0,7.71875 6.04297,14 13.47656,14l129.54688,0c7.43359,0 13.47656,-6.28125 13.47656,-14c0,-7.71875 -6.04297,-14 -13.47656,-14l-5.46875,0c-8.42579,0 -15.53125,-5.32422 -15.53125,-11.63281l0,-20.36719l88,0c13.23046,0 24,-10.76953 24,-24l0,-172c0,-13.23437 -10.76563,-24 -24,-24l-268,0zm0,8l268,0c8.82421,0 16,7.17578 16,16l0,140.01563l-300,0l0,-140.01563c0,-8.82422 7.17578,-16 16,-16zm129.875,8c-1.02735,0 -1.875,0.84766 -1.875,1.875l0,0.25782c0,1.02734 0.84765,1.86718 1.875,1.86718l8.25781,0c1.02734,0 1.86719,-0.83984 1.86719,-1.86718l0,-0.25782c0,-1.02734 -0.83985,-1.875 -1.86719,-1.875l-8.25781,0zm-137.875,12l0,68l4,0l0,-64l272,0l0,-4l-276,0zm280,16l0,108l-276,0l0,-12l-4,0l0,16l284,0l0,-112l-4,0zm-280,68l0,16l4,0l0,-16l-4,0zm-8,55.98438l300,0l0,28.01562c0,8.82422 -7.17579,16 -16,16l-268,0c-8.82422,0 -16,-7.17578 -16,-16l0,-28.01562zm152,8.03125c-6.60938,0 -11.98438,5.375 -11.98438,11.98437c0,6.60938 5.375,11.98438 11.98438,11.98438c6.60937,0 11.98437,-5.375 11.98437,-11.98438c0,-6.60937 -5.375,-11.98437 -11.98437,-11.98437zm0,3.96875c4.42187,0 8.01562,3.59375 8.01562,8.01562c0,4.42188 -3.59375,8.01563 -8.01562,8.01563c-4.42188,0 -8.01563,-3.59375 -8.01563,-8.01563c0,-4.42187 3.59375,-8.01562 8.01563,-8.01562zm-40,40.01562l76,0l0,20.36719c0,10.82813 10.55468,19.63281 23.53125,19.63281l5.46875,0c3.02343,0 5.47656,2.69141 5.47656,6c0,3.3086 -2.45703,6 -5.47656,6l-129.54688,0c-3.02344,0 -5.47656,-2.6914 -5.47656,-6c0,-3.30859 2.45703,-6 5.47656,-6l0.83594,0c2.77734,0 5.40234,-0.46875 7.88281,-1.19531c0.30859,0.70313 1.01172,1.19531 1.82813,1.19531l44,0c1.10937,0 2,-0.89453 2,-2c0,-1.10547 -0.89454,-2 -2,-2l-39.48438,0c5.72266,-3.5664 9.48438,-9.16015 9.48438,-15.50781l0,-20.49219zm42,36c-1.10547,0 -2,0.89453 -2,2c0,1.10547 0.89453,2 2,2l8,0c1.10546,0 2,-0.89453 2,-2c0,-1.10547 -0.89454,-2 -2,-2l-8,0zm0,0"/>
  </g>
 </g>
</svg>